# xmcd
#
# Track frame offsets:
#	150
#	14077
#	28267
#	38732
#	52072
#	66086
#	80879
#	91788
#	101436
#	119208
#	134204
#	178516
#	183995
#	194301
#	209544
#
# Disc length: 2894 seconds
#
# Revision: 0
# Processed by: cddbd v1.4PL0 Copyright (c) Steve Scherf et al.
# Submitted via: EasyCDDAExtractor 4.6.9.1
#
DISCID=e50b4c0f
DTITLE=Andy Williams - The Andy Williams Christmas Concert
DYEAR=2002
DGENRE=Christmas
TTITLE0=It's The Most Wonderful Time Of The Year
TTITLE1=Christmas Needs Love To Be Christmas
TTITLE2=Sleighride
TTITLE3=I'll Be Home For Christmas
TTITLE4=Blue Christmas
TTITLE5=I Saw Mommy Kissing Santa Claus
TTITLE6=Kay Thompson's Jingle Bells
TTITLE7=Let It Snow
TTITLE8=The Christmas Song
TTITLE9=White Christmas (Feat. Lorrie Morgan and The Osmond Brothers)
TTITLE10=Angels We Have Herd On High/O Come All Ye Fathful/Bells Of St. Mary's
TTITLE11=Silent Night
TTITLE12=Jimmy Bishop Christmas Column
TTITLE13=O Holy Night
TTITLE14=May Each Day
EXTD=
EXTT0=
EXTT1=
EXTT2=
EXTT3=
EXTT4=
EXTT5=
EXTT6=
EXTT7=
EXTT8=
EXTT9=
EXTT10=
EXTT11=
EXTT12=
EXTT13=
EXTT14=
PLAYORDER=
